<svg id="Слой_1" xmlns="http://www.w3.org/2000/svg" viewBox="0 0 39.5 40.2"><style>.st1{fill:#fff}</style><path d="M27.5 40.2H12c-6.6 0-12-5.4-12-12V12C0 5.4 5.4 0 12 0h15.5c6.6 0 12 5.4 12 12v16.2c0 6.6-5.4 12-12 12z" fill="#ff6c01"/><path class="st1" d="M17.3 20l.5.5v-5.3c0-.3.1-.6.2-.9l1.8-3.6c.1.3.2.3.2.4.6 1.1 1.2 2.3 1.8 3.5.1.2.2.4.2.6v5.4l.6-.6c0 .2.1.3.1.4v2.3c0 .4-.1.5-.5.5h-4.3c-.4 0-.6-.2-.6-.6v-2.4c-.1-.1 0-.1 0-.2zm1.1-1.2c0 .9.7 1.5 1.5 1.5.9 0 1.6-.7 1.5-1.6 0-.8-.7-1.5-1.5-1.5-.8.1-1.5.8-1.5 1.6zm1.2-2.9v-.8c0-.3-.2-.4-.4-.4-.3 0-.5.1-.5.4v1.5c0 .1.1.2.2.2.6.2.8 0 .8-.6-.1 0-.1-.2-.1-.3zm.6 1h.7c.1 0 .2-.1.2-.2v-1.6c0-.2-.2-.4-.4-.4s-.4.1-.4.4c-.1.6-.1 1.2-.1 1.8zM2.9 20v-2.5c0-.2.1-.3.3-.4.8-.3 1.6-.7 2.4-1 .2-.1.5-.1.7-.1.8.3 1.6.7 2.4 1 .2.2.3.3.3.5v5.1c0 .4-.1.6-.6.6H3.5c-.4 0-.6-.2-.6-.6V20zm2.8 1c0-.8 0-.8-.8-.8h-.2c-.5 0-.5 0-.5.5 0 1.1-.1 1 1 1 .3 0 .5-.1.4-.5.1 0 .1-.1.1-.2zm2 0c0-.8 0-.8-.8-.8h-.2c-.4 0-.5.1-.5.5 0 1.1 0 1.1 1.1 1 .3 0 .4-.1.4-.4V21zm0-1.9c0-.8 0-.8-.8-.8h-.1c-.6 0-.6 0-.6.6 0 .9-.1.9.9.9.6 0 .6 0 .6-.6v-.1zm-2-.1c0-.8 0-.8-.7-.7-.7 0-.7 0-.7.7s0 .7.7.7c.7.1.7.1.7-.7zm17.9 5.7c-.4 0-.4-.2-.4-.5 0-.2.1-.4.3-.3.9.2 1.4-.4 1.9-1.1.5-.9 1.6-.9 2.3-.1.1.2.2.4.4.6.2.4.6.6 1.1.6h.3c.2 0 .4-.1.5.3 0 .3 0 .6-.4.6v4c0 .5-.2.7-.7.7h-4.5c-.5 0-.7-.2-.7-.7v-3.5c-.1-.3-.1-.4-.1-.6zm4.2 3.1v-.4c0-.3-.2-.4-.4-.4s-.5.1-.5.3v.9c0 .1.1.2.1.2.5.2.8 0 .8-.6zm-1.8 0v-.4c-.1-.1-.2-.3-.3-.4-.1 0-.4.1-.5.2-.1.4-.1.7-.1 1.1l.1.1h.7c.1 0 .1-.3.1-.4v-.2zm1.7-1.6v-1c0-.1-.2-.3-.3-.3-.2 0-.5.1-.5.2-.1.3-.1.7 0 1.1 0 .1.5.1.7.1l.1-.1zm-1.7 0v-1c0-.2-.1-.4-.4-.4-.2 0-.5.1-.5.3v1.1h.9zm.9-2.9c0-.3-.2-.5-.5-.5s-.5.2-.5.5.2.5.5.5c.3.1.5-.2.5-.5zm-13.8 5.9H11c-.5 0-.6-.1-.6-.6v-1.5c0-.1-.1-.2-.2-.3-.1-.1-.2-.2-.2-.3v-2.2c0-.2.2-.4.3-.5.9-.6 1.7-1.1 2.6-1.7.1-.1.3 0 .4 0 .9.5 1.7 1.1 2.6 1.6.2.1.3.3.3.6v2c0 .2 0 .3-.2.4-.1 0-.1.2-.1.3v1.5c0 .5-.1.6-.6.6-.8.1-1.5.1-2.2.1zm.4-1.4c0 .6 0 .6.4.6.5 0 .5 0 .5-.5v-.5c0-.2-.2-.4-.4-.4s-.4.1-.4.4c-.1.1-.1.2-.1.4zm-1.7 0c0 .7 0 .7.7.6.1-.1.2-.1.2-.2v-.9c0-.1-.2-.3-.4-.3s-.4.1-.5.4v.4zm0-2.1c.1.2-.2.6.4.6.6 0 .6 0 .6-.6v-.5c0-.3-.2-.4-.4-.4-.3 0-.4.1-.5.4-.1.2-.1.3-.1.5zm1.7.5c1.1.1.9.1.9-.7v-.2c0-.3-.2-.4-.5-.4-.2 0-.4.1-.4.4v.9zm-.4-2.1c.3 0 .6-.3.5-.6 0-.3-.3-.5-.6-.5s-.5.2-.5.6c.1.3.3.5.6.5zm21.2-7.2l.3-.6V16c0-.1 0-.2.1-.3h.2c0 .1.1.2.1.3v.3c.3.2.3.4.3.7.1.7.5 1.1 1.3 1.3-.1.1-.1.4-.2.4-.3.1-.2.2-.2.4v3.4c0 .6-.2.7-.8.7h-4.1c-.6 0-.7-.2-.7-.8v-3.3c0-.2 0-.4-.3-.4-.1 0-.1-.2-.1-.3 0 0 .1-.1.2-.1.7-.2 1.1-.6 1.1-1.3 0-.2.1-.3.2-.5 0-.1 0-.2.1-.4 0-.1 0-.2.1-.3h.2c0 .1.1.2.1.3-.1.2-.1.3.1.4.1 0 .2.1.2.2 0 .4.2.4.5.4.3-.2.8-.2 1.3-.2zm-1.2 3.5v-.8c0-.4-.2-.6-.5-.6-.4 0-.6.2-.6.6v1.3c0 .8 0 .8.8.7.2 0 .3-.1.3-.3v-.9zm.7 0v.9c0 .1.1.2.2.2h.7c.1 0 .2-.1.2-.2v-2c0-.3-.2-.5-.5-.5s-.5.2-.5.5c-.1.5-.1.8-.1 1.1z"/><path class="st1" d="M19.9 17.9c.5 0 .9.4.9.9s-.4.9-.9.9-.9-.4-.9-.9.4-.9.9-.9z"/></svg>