<svg xmlns="http://www.w3.org/2000/svg" viewBox="0 0 24 20"><defs><style>.cls-2{fill:#fccf11}</style></defs><g id="Слой_2" data-name="Слой 2"><g id="Слой_1-2" data-name="Слой 1"><path d="M0 18V2a2 2 0 0 1 2-2h13a2 2 0 0 1 2 2v4a1 1 0 0 1-2 0V2H2v16h13v-4a1 1 0 0 1 2 0v4a2 2 0 0 1-2 2H2a2 2 0 0 1-2-2z" fill="#fff"/><path class="cls-2" d="M8 10a1 1 0 0 1 1-1h14a1 1 0 0 1 0 2H9a1 1 0 0 1-1-1z"/><path class="cls-2" d="M19 13a1 1 0 0 1 .29-.71l2.3-2.29-2.3-2.29A1 1 0 0 1 20.7 6.3l3 3a1 1 0 0 1 0 1.41l-3 3A1 1 0 0 1 19 13z"/></g></g></svg>