<svg xmlns="http://www.w3.org/2000/svg" viewBox="0 0 39.54 40.65"><g id="Слой_2" data-name="Слой 2"><g id="Слой_1-2" data-name="Слой 1"><rect y=".21" width="39.54" height="40.23" rx="12" ry="12" fill="#fab622"/><path d="M14 23.48l.28-.07.05-.26h.11a32.92 32.92 0 0 1 .34 3.61c0 4.66-1 9.08-1.06 13.88h4.55A33.17 33.17 0 0 1 19.59 37a20.11 20.11 0 0 1 1 3.61h4.75c-.23-3.29-.33-5.55-.92-9.66a1.91 1.91 0 0 0 .8-.15c-.87-2.81-1.19-10.75-.3-14.91a13.77 13.77 0 0 0 1-4l.3-1.16a26.48 26.48 0 0 0 .89-2.57 23.55 23.55 0 0 0 .53-2.45l.32-1a4.11 4.11 0 0 0 .45-.54 4.38 4.38 0 0 0 .34-.61 1 1 0 0 1 .29-.25 1.61 1.61 0 0 1 .36-.15l1-.18s.32-.05.27-.23-.51-.15-.51-.15a6.92 6.92 0 0 1-1.16.12 10.2 10.2 0 0 1 1.24-1s.34-.29.23-.48-.53.1-.53.1-1.26.86-1.36.87a12.09 12.09 0 0 1 .94-1.4s.3-.43.14-.61-.46.2-.46.2l-1.15 1.4c-.06.06-.15 0-.21-.09a.27.27 0 0 1 0-.2L28 .36a.37.37 0 0 0-.23-.36c-.23-.08-.33.21-.33.21L27 1.91a1.28 1.28 0 0 1-.53.47.85.85 0 0 1-.56-.08 2.48 2.48 0 0 0-.46-.44.92.92 0 0 0-.37-.12s-.39 0-.56.18.2.22.2.22a1.9 1.9 0 0 1 .49.37.7.7 0 0 1 .13.36s0 .13.15.43a6.33 6.33 0 0 0 .51.63 1.57 1.57 0 0 1 .16.37v.46a.9.9 0 0 1 0 .14l-.83 2.17s-.33.65-.66 1.42-.76 1.85-.93 2.19v.07s-.26.38-.51.84a4 4 0 0 1-1 1 2.56 2.56 0 0 0-1.22.76A1.76 1.76 0 0 1 20 14h-.13s-.19-.7-.25-.91a1 1 0 0 1-.06-.35s.41-.41.41-.57a7.07 7.07 0 0 0-.28-1.91 3.05 3.05 0 0 1-.35-.92 1.9 1.9 0 0 0-.34-.75c-.14-.12-.49-.39-.53-.46a1.24 1.24 0 0 0-.41-.45c-.2-.1-.16-.24-.29-.38a.5.5 0 0 0-.28-.16s.14.1.07.18l-.06.06h-.4a1.72 1.72 0 0 0-.25.12.42.42 0 0 0-.45-.08c-.3.1.14 0 .14.09a.1.1 0 0 1-.11.12s-.25.22-.39.21-.31.18-.35.21h-.29L15.26 8v.08c0 .06.08.08 0 .2s-.15.16-.2.28-.19.36-.25.32-.1 0 0-.14.12-.12.12-.12-.24 0-.22.27c0 0-.35.08-.36.23a.16.16 0 0 1 .23 0h-.11a1.46 1.46 0 0 0 0 .35c0 .15-.05.06-.08.07a2.23 2.23 0 0 0-.23.71c0 .11 0 .1-.07.06s0 .15 0 .18.12.08.1.28a.63.63 0 0 1-.23.37h.17v.07a3.26 3.26 0 0 1 .12.49c0 .13 0 0 0 0a3.32 3.32 0 0 0 .6.85c.43.46 1.29 1 1.36 1.29a5.14 5.14 0 0 1 .1 1.41h-.41v.2a1.32 1.32 0 0 1-.18.24l-.31.28-.29.21-.2.16a11.27 11.27 0 0 0-2.18 1.49c-.88 1-1 2.19-1.64 3.85.16.4.39.38.49.74L11 25.9a16.48 16.48 0 0 0-.53 2.95 40.34 40.34 0 0 0 0 4.19s.08 1.23.18 1.67a3.34 3.34 0 0 0 .73 1.09l1.21.37s.19.06.2-.11a.4.4 0 0 0-.09-.28.33.33 0 0 0 0-.21 4.14 4.14 0 0 0-.62-.31l-.17-.19-.22-.43a3.39 3.39 0 0 1 .06-.82s.35.06.39.17.29.44.54.5.2-.07.18-.18-.44-.69-.47-.88a2.33 2.33 0 0 0-.29-.76 1.14 1.14 0 0 0-.28-.24l-.11-.11s.66-2.27 1-3.4a16.46 16.46 0 0 0 .33-2.3 1.2 1.2 0 0 1 .13-.51 18.56 18.56 0 0 0 .83-2.63" fill="#020202"/></g></g></svg>