<svg xmlns="http://www.w3.org/2000/svg" fill="#fff" viewBox="0 0 25 24"><g id="Слой_2" data-name="Слой 2"><g id="Слой_1-2" data-name="Слой 1"><path fill="#FCCF11" d="M6 12H1a1 1 0 0 1 0-2h5a1 1 0 0 1 0 2zm1 6H4a1 1 0 0 1 0-2h3a1 1 0 0 1 0 2zm2-3H3a1 1 0 0 1 0-2h6a1 1 0 0 1 0 2z"/><circle cx="15" cy="14" r="2"/><path d="M15 6a1 1 0 0 1-1-1V1a1 1 0 0 1 2 0v4a1 1 0 0 1-1 1z"/><path d="M17 2h-4a1 1 0 0 1 0-2h4a1 1 0 0 1 0 2zm-2 22a10 10 0 0 1-7.45-3.33A1 1 0 1 1 9 19.33 8 8 0 1 0 8.92 8.8 1 1 0 1 1 7.4 7.5 10 10 0 1 1 15 24z"/><path d="M22 9a1 1 0 0 1-1-1 1 1 0 0 1-.71-1.71l2-2a1 1 0 0 1 1.41 0l1 1a1 1 0 0 1 0 1.41l-2 2a1 1 0 0 1-.7.3zm-7 6a1 1 0 0 1-.71-.29l-3.48-3.48a1 1 0 0 1 1.41-1.41l3.48 3.48A1 1 0 0 1 15 15z"/></g></g></svg>