<svg xmlns="http://www.w3.org/2000/svg" viewBox="0 0 24 16"><defs><style>.cls-1{fill:#fff}</style></defs><g id="Слой_2" data-name="Слой 2"><g id="Слой_1-2" data-name="Слой 1"><path class="cls-1" d="M8 16a8 8 0 1 1 8-8 8 8 0 0 1-8 8zM8 2a6 6 0 1 0 6 6 6 6 0 0 0-6-6z"/><path class="cls-1" d="M16 16a8 8 0 0 1-2.29-.33 1 1 0 0 1 .57-1.92 6 6 0 1 0 0-11.5 1 1 0 1 1-.57-1.92A8 8 0 1 1 16 16z"/><path class="cls-1" d="M12 16a8 8 0 0 1-2.29-.33 1 1 0 0 1 .57-1.92 6 6 0 1 0 0-11.5A1 1 0 1 1 9.71.33 8 8 0 1 1 12 16z"/><text transform="translate(5.19 11.6)" font-size="11" fill="#fccf11" font-family="Calibri-Bold,Calibri" font-weight="700" letter-spacing="0">Р</text></g></g></svg>