<svg xmlns="http://www.w3.org/2000/svg" viewBox="0 0 43 15"><defs><style>.cls-1{fill:#fff}</style></defs><g id="Слой_2" data-name="Слой 2"><g id="Слой_1-2" data-name="Слой 1"><path class="cls-1" d="M42 15H20a1 1 0 0 1-1-1V1a1 1 0 0 1 1-1h22a1 1 0 0 1 1 1v13a1 1 0 0 1-1 1zm-21-2h20V2H21z"/><path d="M31 12a4.28 4.28 0 0 1-4-4.53 4.28 4.28 0 0 1 4-4.53 4.28 4.28 0 0 1 4 4.53A4.28 4.28 0 0 1 31 12zm0-7.05a2.3 2.3 0 0 0-2 2.53A2.3 2.3 0 0 0 31 10a2.3 2.3 0 0 0 2-2.53 2.3 2.3 0 0 0-2-2.54zm-7 7.55h-1a1 1 0 0 1 0-2h1a1 1 0 0 1 0 2zm15-7h-1a1 1 0 0 1 0-2h1a1 1 0 0 1 0 2z" fill="#fccf11"/><path class="cls-1" d="M14.33 12H.75C.34 12 0 11.55 0 11s.34-1 .75-1h13.58c.42 0 .75.45.75 1s-.33 1-.75 1zm0-3.5H3.77c-.42 0-.75-.45-.75-1s.34-1 .75-1h10.56c.42 0 .75.45.75 1s-.33 1-.75 1zm.25-3.5H7.44c-.28 0-.51-.45-.51-1s.23-1 .51-1h7.14c.28 0 .51.45.51 1s-.23 1-.51 1z"/></g></g></svg>