<svg xmlns="http://www.w3.org/2000/svg" viewBox="0 0 24 21"><defs><style>.cls-1{fill:#fff}</style></defs><g id="Слой_2" data-name="Слой 2"><g id="Слой_1-2" data-name="Слой 1"><path class="cls-1" d="M23 21H1a1 1 0 0 1-1-1V7a1 1 0 0 1 1-1h22a1 1 0 0 1 1 1v13a1 1 0 0 1-1 1zM2 19h20V8H2z"/><path d="M12 18a4.28 4.28 0 0 1-4-4.53 4.28 4.28 0 0 1 4-4.53 4.28 4.28 0 0 1 4 4.53A4.28 4.28 0 0 1 12 18zm0-7.05a2.3 2.3 0 0 0-2 2.53A2.3 2.3 0 0 0 12 16a2.3 2.3 0 0 0 2-2.53 2.3 2.3 0 0 0-2-2.54zM5 18H4a1 1 0 0 1 0-2h1a1 1 0 0 1 0 2zm15-7h-1a1 1 0 0 1 0-2h1a1 1 0 0 1 0 2z" fill="#fccf11"/><path class="cls-1" d="M21 5H3a1 1 0 0 1 0-2h18a1 1 0 0 1 0 2zm-2-3H5a1 1 0 0 1 0-2h14a1 1 0 0 1 0 2z"/></g></g></svg>